<?xml version="1.0" encoding="iso-8859-1"?>
<!-- Generator: Adobe Illustrator 19.0.0, SVG Export Plug-In . SVG Version: 6.00 Build 0)  -->
<svg version="1.1" id="Layer_1" xmlns="http://www.w3.org/2000/svg" xmlns:xlink="http://www.w3.org/1999/xlink" x="0px" y="0px"
	 viewBox="0 0 488.498 488.498" style="enable-background:new 0 0 488.498 488.498;" xml:space="preserve">
<g transform="translate(0 -540.36)">
	<g>
		<g>
			<path d="M442.159,991.258c-9.1,7.3-26.1,17.8-34.2,17.4c-0.2,0-0.3,0-0.5,0c-3.9,0-8.8-3.7-13.9-7.6c-7.4-5.6-15.9-12-27.1-12
				c-10.7,0-18.8,6.2-26,11.6c-5.4,4-10.5,7.9-15,7.9c-3.9,0-8.8-3.7-13.9-7.6c-7.4-5.6-15.8-12-27.1-12c-10.7,0-18.8,6.2-26,11.6
				c-5.4,4-10.5,7.9-15,7.9c-4,0-8.9-3.7-14-7.7c-7.2-5.6-15.4-11.9-26.2-11.9c-11.3,0-19.7,6.4-27.1,12c-5.2,3.9-10,7.6-13.9,7.6
				c-4.5,0-9.6-3.8-15-7.9c-7.1-5.4-15.3-11.6-25.9-11.6c-11.1,0-19.8,6.7-26.8,12.1c-5.1,4-10,7.7-13.6,7.5c-0.2,0-0.4,0-0.6,0
				c-8.3,0-25.4-10.2-34.8-17.5c-4.3-3.4-10.6-2.6-14,1.8c-3.4,4.3-2.6,10.6,1.8,14c4.7,3.6,28.8,21.4,46.8,21.6c0.4,0,0.8,0,1.2,0
				c10.4,0,18.4-6.2,25.4-11.4c5.3-4,10.3-7.9,14.6-7.9c3.9,0,8.8,3.7,13.9,7.6c7.4,5.6,15.9,12,27.1,12c10.7,0,18.8-6.2,26-11.6
				c5.4-4,10.5-7.9,15-7.9c4,0,8.9,3.7,14,7.7c7.2,5.6,15.4,11.9,26.2,11.9c11.3,0,19.7-6.4,27.1-12c5.2-3.9,10-7.6,13.9-7.6
				c4.5,0,9.6,3.8,15,7.9c7.2,5.4,15.4,11.6,26,11.6c11.3,0,19.7-6.4,27.1-12c5.2-3.9,10-7.6,13.9-7.6c4.5,0,9.6,3.8,15,7.9
				c7.1,5.4,15.2,11.5,25.7,11.6c18.4,0.8,42.8-18,47.5-21.8c4.3-3.5,5-9.8,1.5-14.1S446.459,987.758,442.159,991.258z"/>
			<path d="M33.159,955.058c4.7,3.8,29.1,22.6,47.2,22.6c10.7,0,18.9-6.4,26.1-12.1c5.4-4.2,10.4-8.2,14.8-8.2
				c3.8,0,8.6,3.8,13.7,7.8c7.4,5.9,15.9,12.6,27.2,12.6c10.7,0,18.9-6.4,26.1-12.1c5.4-4.2,10.4-8.2,14.8-8.2c3.9,0,8.7,3.9,13.8,8
				c7.2,5.8,15.4,12.4,26.3,12.4c11.4,0,19.8-6.7,27.2-12.6c5.1-4,9.9-7.8,13.7-7.8c4.4,0,9.5,4,14.8,8.2
				c7.2,5.7,15.4,12.1,26.1,12.1c11.4,0,19.8-6.7,27.2-12.6c5.1-4,9.9-7.8,13.7-7.8c4.4,0,9.5,4,14.8,8.2
				c7.2,5.7,15.4,12.1,26.1,12.1c18.2,0,42.5-18.8,47.2-22.6c4.3-3.5,5-9.7,1.5-14.1c-3.5-4.4-9.2-4.7-13.5-1.3v0
				c-9.4,7.6-26.4,18.2-34.7,18.2c-2,0-4.3-1.1-6.7-2.7l57.1-94.7c1.9-3.2,1.9-7.2-0.1-10.4s-5.6-5-9.3-4.7l-68.6,5.6l37.7-93.8
				c1.7-4.3,0.3-9.3-3.6-12l-235-162.5l-6.6-34.2c-1-5.4-6.3-9-11.7-7.9c-5.4,1-9,6.3-7.9,11.7l7.8,40.7l-99.8,248.8
				c-1,2.6-0.9,5.6,0.3,8.1s3.5,4.4,6.2,5.2l56.8,16.7l-54.8,4.5c-3.2,0.3-6.1,2.1-7.8,4.8c-1.7,2.8-1.9,6.2-0.6,9.1l28,63.9
				c-3,2.1-5.8,3.6-8.2,3.6c-8.3,0-25.3-10.6-34.7-18.2c-4.3-3.5-10.6-2.8-14.1,1.5S28.859,951.558,33.159,955.058z
				 M395.759,757.158l-38,94.5c-0.2,0.4-0.3,0.8-0.4,1.2l-124.9,10.2l-48.4-252.2L395.759,757.158z M83.259,839.058l84.1-209.7
				l45.2,235.3l-34.7,2.8c-0.9-0.5-1.8-1-2.8-1.3L83.259,839.058z M84.859,895.158l345.8-28.3l-46,76.4c-5.2-3.3-11.1-5.8-18-5.8
				c-11.1,0-19.3,6.5-26.5,12.2v0c-5.4,4.2-10.4,8.2-14.8,8.2c-3.8,0-8.6-3.8-13.7-7.8c-7.4-5.9-15.9-12.6-27.2-12.6
				c-10.7,0-18.9,6.4-26.1,12.1c-5.4,4.2-10.4,8.2-14.8,8.2c-3.9,0-8.7-3.9-13.8-8c-7.2-5.8-15.4-12.4-26.3-12.4
				c-11.4,0-19.8,6.7-27.2,12.6c-5.1,4-9.9,7.8-13.7,7.8c-4.4,0-9.5-4-14.8-8.2c-7.2-5.7-15.4-12.1-26.1-12.1
				c-6.1,0-11.4,2-16.2,4.7L84.859,895.158z"/>
		</g>
	</g>
</g>
<g>
</g>
<g>
</g>
<g>
</g>
<g>
</g>
<g>
</g>
<g>
</g>
<g>
</g>
<g>
</g>
<g>
</g>
<g>
</g>
<g>
</g>
<g>
</g>
<g>
</g>
<g>
</g>
<g>
</g>
</svg>
