<?xml version="1.0" standalone="no"?>
<!DOCTYPE svg PUBLIC "-//W3C//DTD SVG 20010904//EN"
 "http://www.w3.org/TR/2001/REC-SVG-20010904/DTD/svg10.dtd">
<svg version="1.0" xmlns="http://www.w3.org/2000/svg"
 width="520.000000pt" height="520.000000pt" viewBox="0 0 520.000000 520.000000"
 preserveAspectRatio="xMidYMid meet">
<metadata>
Created by potrace 1.14, written by Peter Selinger 2001-2017
</metadata>
<g transform="translate(0.000000,520.000000) scale(0.100000,-0.100000)"
fill="#000000" stroke="none">
<path d="M4013 4965 c-29 -8 -70 -26 -92 -39 -40 -26 -149 -110 -166 -130 -25
-28 -114 -96 -152 -116 -34 -17 -58 -21 -126 -21 -46 0 -99 3 -118 5 -19 3
-59 7 -89 11 -110 11 -120 15 -114 40 3 13 1 33 -6 44 -10 20 -15 21 -128 14
-130 -8 -397 -9 -512 -2 l-75 4 2 -52 c3 -85 11 -93 91 -87 37 3 78 6 91 7 21
2 26 -4 34 -38 18 -73 12 -456 -8 -628 -2 -15 -6 -60 -10 -100 -4 -40 -8 -79
-10 -87 -2 -8 -6 -49 -10 -90 -3 -41 -8 -82 -10 -90 -2 -8 -7 -44 -10 -80 -3
-36 -8 -72 -10 -80 -2 -8 -7 -36 -10 -62 -7 -69 -22 -172 -41 -285 -9 -54 -18
-113 -20 -132 -6 -42 -71 -427 -84 -496 -5 -27 -12 -66 -15 -85 -3 -19 -8 -46
-10 -60 -10 -50 -15 -75 -20 -113 -19 -124 -140 -704 -183 -878 -35 -138 -38
-133 -88 141 -2 14 -7 36 -9 50 -3 14 -7 43 -11 65 -3 22 -7 47 -9 55 -3 8
-14 76 -25 150 -11 74 -22 145 -25 157 -2 12 -9 57 -15 100 -7 43 -14 87 -16
98 -2 11 -6 44 -10 73 -3 29 -7 61 -9 70 -2 10 -6 45 -10 77 -4 33 -9 69 -11
80 -2 11 -13 92 -25 180 -11 88 -23 176 -25 195 -3 19 -7 51 -9 70 -2 19 -6
49 -9 65 -2 17 -7 57 -11 90 -3 33 -7 67 -10 75 -2 8 -6 42 -9 75 -3 33 -8 69
-10 80 -2 11 -7 51 -11 90 -4 38 -8 72 -10 75 -1 3 -6 39 -9 80 -7 73 -10 100
-22 205 -9 83 -12 117 -19 190 -4 39 -8 81 -10 95 -9 64 -19 259 -19 390 0
182 8 207 72 202 46 -4 84 14 101 47 37 69 10 128 -51 110 -86 -25 -326 -30
-493 -10 -50 6 -116 13 -147 16 l-58 6 0 -63 c0 -35 4 -69 8 -75 4 -7 23 -12
42 -11 75 2 91 -18 106 -130 2 -20 6 -48 8 -62 15 -95 36 -244 41 -290 4 -30
8 -57 10 -60 2 -3 6 -43 10 -90 3 -46 8 -87 10 -90 2 -3 6 -34 10 -70 3 -36 8
-76 10 -90 2 -14 9 -65 15 -115 6 -49 13 -105 16 -122 12 -92 15 -110 19 -138
21 -141 24 -194 15 -248 -5 -23 -11 -62 -14 -87 -3 -25 -8 -54 -10 -65 -2 -11
-6 -38 -10 -60 -16 -111 -50 -325 -72 -450 -13 -77 -26 -158 -29 -180 -4 -22
-8 -47 -10 -55 -2 -8 -7 -35 -10 -60 -4 -24 -8 -47 -10 -50 -2 -3 -6 -26 -10
-50 -12 -87 -117 -627 -140 -720 -13 -54 -36 -135 -40 -138 -5 -5 -11 20 -34
138 -12 58 -23 116 -26 130 -3 14 -14 79 -25 145 -11 66 -22 129 -24 140 -2
11 -9 56 -16 100 -6 44 -13 91 -16 105 -10 60 -33 209 -39 250 -3 25 -10 70
-15 100 -5 30 -12 78 -15 105 -3 28 -8 61 -10 75 -3 14 -7 41 -10 60 -2 19
-12 85 -20 145 -9 61 -18 126 -21 145 -2 20 -6 45 -8 55 -4 19 -13 88 -21 150
-2 17 -7 59 -10 95 -4 36 -9 74 -11 85 -2 11 -7 45 -10 75 -3 30 -7 66 -9 80
-2 14 -7 48 -10 75 -6 58 -14 119 -20 155 -2 14 -7 50 -10 80 -3 30 -7 71 -10
90 -2 19 -7 58 -10 85 -3 28 -7 64 -9 80 -2 17 -7 64 -12 105 -4 41 -8 77 -9
80 -1 3 -5 43 -9 90 -4 47 -10 98 -12 115 -5 47 -16 176 -18 216 l-2 36 69 -1
c63 -1 71 1 93 27 25 30 32 83 14 116 -9 19 -28 20 -120 7 -94 -12 -463 -8
-565 8 -14 2 -19 -114 -5 -128 6 -6 31 -12 56 -13 26 -1 52 -7 59 -13 12 -10
40 -139 51 -233 3 -23 7 -49 9 -57 2 -8 7 -41 10 -73 4 -32 8 -66 9 -75 6 -28
15 -93 21 -147 3 -27 8 -65 11 -82 2 -18 6 -48 8 -65 3 -18 8 -55 11 -83 3
-27 8 -61 10 -75 3 -14 7 -50 10 -80 3 -30 7 -71 10 -90 3 -19 7 -55 10 -80 3
-25 10 -76 15 -115 6 -38 12 -88 15 -110 4 -38 13 -102 20 -155 2 -14 9 -63
15 -110 11 -86 19 -139 25 -169 3 -18 12 -75 20 -136 3 -22 10 -67 15 -100 5
-33 12 -82 16 -110 3 -27 8 -59 10 -70 2 -11 7 -40 10 -65 7 -54 13 -97 19
-130 2 -14 7 -43 10 -65 24 -168 51 -343 60 -395 3 -19 8 -51 10 -70 7 -54 14
-103 19 -130 3 -14 8 -45 11 -70 3 -25 8 -56 10 -70 7 -39 13 -80 20 -140 4
-30 8 -57 10 -60 2 -3 6 -30 9 -60 4 -30 9 -66 11 -80 5 -25 7 -43 20 -130 7
-52 82 -503 90 -540 2 -13 7 -42 11 -65 5 -40 28 -85 42 -85 4 0 21 9 39 20
26 16 36 33 57 97 21 69 100 377 112 442 3 12 23 96 45 185 62 252 164 726
195 906 3 14 22 117 44 230 32 166 101 545 113 622 5 31 13 28 15 -5 1 -18 7
-59 12 -92 5 -33 12 -76 15 -95 2 -19 12 -82 20 -140 9 -58 18 -123 21 -145 3
-22 9 -65 14 -95 5 -30 12 -75 15 -100 3 -25 11 -74 16 -110 6 -36 12 -81 15
-100 2 -19 9 -60 14 -90 5 -30 12 -75 15 -100 3 -25 8 -56 10 -70 3 -14 7 -41
9 -60 3 -19 7 -48 10 -65 7 -44 47 -314 52 -355 3 -19 9 -64 15 -100 6 -36 13
-81 15 -101 3 -20 27 -168 54 -329 32 -195 54 -298 64 -308 12 -12 22 -13 48
-6 47 14 53 29 118 294 48 197 81 334 85 350 2 8 28 115 59 237 65 262 170
725 241 1065 2 10 29 136 59 280 30 145 57 274 60 288 3 14 14 69 25 124 12
54 23 108 25 120 2 11 18 89 35 171 16 83 32 164 35 180 3 17 8 39 10 50 6 30
57 287 62 313 8 43 13 67 24 122 6 30 13 66 16 80 2 14 15 81 29 150 13 69 33
175 45 235 11 61 23 121 25 135 3 14 7 39 10 55 12 69 17 84 31 89 8 3 15 -1
15 -9 2 -18 3 -22 12 -58 7 -27 10 -28 55 -24 94 8 182 -26 216 -83 8 -15 18
-48 21 -76 4 -27 8 -60 10 -72 2 -13 7 -70 10 -125 4 -56 8 -127 10 -157 27
-415 27 -2215 0 -2850 -17 -402 -35 -537 -85 -645 -42 -93 -79 -125 -142 -125
-54 0 -78 11 -94 41 -8 16 -19 29 -24 29 -25 0 -40 -152 -20 -205 26 -69 169
-67 275 4 17 12 69 59 117 106 l86 86 64 -46 c116 -86 342 -181 482 -203 77
-12 164 12 266 73 353 213 646 797 697 1390 12 142 6 381 -12 475 -30 151 -41
187 -101 317 -103 225 -269 368 -514 445 l-68 21 41 41 c191 193 368 596 404
921 10 90 10 405 1 470 -43 285 -164 483 -353 578 -96 48 -269 68 -362 42z
m94 -243 c32 -17 90 -87 116 -139 25 -49 71 -184 81 -238 4 -16 9 -41 11 -55
43 -220 51 -560 19 -812 -34 -276 -136 -495 -251 -543 -19 -8 -67 -16 -107
-18 -81 -4 -232 18 -254 36 -13 10 -14 66 -8 402 4 214 8 435 11 490 2 55 6
177 9 270 9 247 14 308 35 375 59 188 217 296 338 232z m-12 -2031 c261 -61
411 -330 451 -811 4 -51 4 -489 0 -530 -2 -19 -7 -68 -11 -109 -28 -323 -106
-580 -213 -701 -76 -86 -186 -118 -289 -83 -73 25 -151 112 -211 236 -78 158
-93 239 -107 577 -7 152 -8 1408 -1 1418 3 5 36 10 73 11 37 1 68 3 70 5 7 7
194 -3 238 -13z"/>
</g>
</svg>
