<?xml version="1.0" standalone="no"?>
<!DOCTYPE svg PUBLIC "-//W3C//DTD SVG 20010904//EN"
 "http://www.w3.org/TR/2001/REC-SVG-20010904/DTD/svg10.dtd">
<svg version="1.0" xmlns="http://www.w3.org/2000/svg"
 width="1527.000000pt" height="1527.000000pt" viewBox="0 0 1527.000000 1527.000000"
 preserveAspectRatio="xMidYMid meet">
<metadata>
Created by potrace 1.14, written by Peter Selinger 2001-2017
</metadata>
<g transform="translate(0.000000,1527.000000) scale(0.100000,-0.100000)"
fill="#000000" stroke="none">
<path d="M4974 15252 c-135 -47 -219 -176 -208 -323 2 -34 7 -65 9 -70 3 -4 8
-27 11 -51 3 -24 9 -56 14 -73 5 -16 11 -48 14 -70 3 -22 10 -60 16 -85 5 -25
18 -94 30 -155 27 -145 28 -152 40 -210 5 -27 12 -62 14 -78 3 -15 7 -35 10
-45 3 -9 7 -34 10 -55 4 -21 13 -71 21 -110 16 -84 43 -228 51 -273 4 -25 -31
-121 -157 -435 -88 -222 -167 -417 -174 -434 -7 -16 -34 -84 -60 -150 -26 -66
-53 -133 -60 -150 -8 -16 -104 -257 -215 -535 -111 -278 -330 -824 -487 -1215
-157 -390 -512 -1277 -790 -1970 -278 -693 -511 -1273 -518 -1290 -7 -16 -34
-84 -60 -150 -26 -66 -53 -133 -60 -150 -7 -16 -104 -257 -215 -535 -112 -278
-232 -577 -267 -665 -49 -122 -65 -175 -68 -221 -7 -126 50 -233 156 -292 20
-11 124 -46 230 -77 107 -31 237 -70 289 -85 185 -56 245 -74 255 -76 6 -1 64
-18 130 -37 126 -37 690 -203 810 -238 114 -33 123 -37 100 -39 -11 -1 -31 -3
-45 -5 -14 -1 -68 -6 -120 -10 -52 -3 -108 -8 -125 -10 -16 -3 -68 -7 -115
-10 -47 -4 -101 -8 -120 -10 -19 -2 -77 -6 -128 -10 -51 -3 -101 -8 -111 -10
-10 -2 -62 -6 -117 -10 -54 -3 -115 -7 -134 -9 -19 -2 -71 -7 -115 -10 -44 -4
-102 -9 -130 -11 -136 -12 -185 -16 -240 -20 -224 -17 -257 -23 -315 -57 -122
-72 -183 -208 -150 -336 6 -26 43 -119 82 -207 39 -88 142 -324 230 -525 156
-356 252 -574 288 -655 10 -22 41 -94 70 -160 28 -66 58 -133 65 -150 8 -16
39 -88 70 -160 31 -71 64 -145 72 -163 15 -31 14 -34 -3 -47 -38 -30 -180 -95
-214 -98 -83 -8 -241 38 -418 124 -153 74 -466 265 -526 321 -11 10 -23 18
-27 18 -4 0 -14 6 -21 13 -18 17 -128 99 -158 118 -116 72 -276 50 -379 -52
-124 -125 -118 -334 14 -450 46 -41 172 -135 250 -189 37 -25 72 -50 78 -55 7
-6 55 -37 107 -69 52 -32 112 -69 132 -82 143 -90 410 -213 573 -263 408 -124
669 -63 1084 257 69 53 166 127 216 164 94 70 216 137 263 144 15 2 38 6 52 8
14 2 48 -3 75 -11 89 -26 155 -70 450 -299 300 -233 521 -327 763 -324 107 1
138 5 229 30 162 44 292 119 553 319 221 169 263 198 344 239 165 81 254 53
539 -171 193 -152 217 -169 298 -224 217 -145 371 -197 579 -195 260 1 457 90
805 362 269 210 353 260 450 268 111 8 199 -38 482 -256 102 -79 218 -164 256
-188 143 -93 283 -151 421 -175 93 -16 271 -6 371 21 139 37 324 137 491 266
145 112 179 139 184 144 10 11 117 87 165 117 157 100 254 100 416 2 59 -36
97 -64 294 -215 120 -93 204 -154 247 -179 128 -76 281 -136 388 -153 78 -13
242 -9 325 8 304 58 719 267 1130 568 223 163 269 225 268 362 0 97 -33 170
-104 234 -63 57 -131 81 -208 73 -88 -10 -110 -21 -271 -141 -371 -277 -761
-477 -958 -493 -72 -6 -139 14 -207 60 l-33 23 74 119 c40 66 77 127 81 135 6
14 109 184 589 978 120 199 227 377 237 394 10 17 51 85 91 152 40 66 157 261
260 431 102 171 190 317 195 325 6 8 71 117 146 241 114 189 137 236 147 288
37 200 -119 375 -328 366 -55 -3 -153 -10 -259 -20 -16 -2 -75 -6 -130 -10
-54 -4 -107 -8 -117 -10 -9 -2 -61 -7 -115 -10 -54 -4 -114 -8 -133 -10 -19
-2 -71 -6 -115 -9 -44 -4 -100 -8 -125 -11 -25 -2 -76 -7 -115 -10 -38 -3 -97
-8 -130 -10 -74 -6 -148 -12 -245 -20 -41 -3 -95 -8 -120 -10 -25 -2 -83 -7
-130 -10 -47 -4 -101 -8 -120 -10 -19 -2 -73 -6 -120 -10 -47 -3 -105 -8 -129
-11 -33 -4 -42 -2 -38 8 76 194 210 528 217 543 5 11 61 151 125 310 64 160
122 304 130 320 7 17 32 80 55 140 24 61 50 128 60 150 9 22 32 78 50 125 18
47 37 89 42 95 4 5 8 15 8 22 0 7 11 37 25 67 14 30 25 59 25 64 0 8 15 45 60
147 5 11 18 43 28 70 11 28 97 244 192 480 171 422 174 431 174 505 0 86 -29
162 -83 216 -17 17 -219 161 -448 320 -230 159 -451 311 -490 339 -72 50 -563
389 -718 496 -44 30 -116 80 -160 110 -44 30 -85 59 -92 64 -6 6 -76 54 -155
108 -170 117 -276 190 -623 430 -143 99 -289 201 -325 225 -106 73 -610 422
-675 467 -33 23 -157 109 -275 190 -118 82 -244 169 -280 194 -36 24 -121 83
-189 130 -68 47 -174 121 -235 163 -61 42 -154 106 -206 142 -52 36 -136 93
-186 128 -49 35 -159 110 -243 168 -141 97 -213 147 -331 230 -25 17 -90 62
-145 100 -55 38 -120 83 -145 100 -240 167 -303 210 -310 210 -5 0 -10 4 -12
8 -1 5 -62 48 -133 98 -152 104 -347 238 -548 378 -78 54 -180 125 -227 157
-47 32 -119 82 -160 110 -41 29 -78 56 -82 62 -3 6 -9 31 -13 56 -4 25 -24
134 -45 241 -51 261 -90 462 -96 496 -3 16 -12 63 -20 104 -9 41 -18 86 -20
100 -2 14 -7 39 -11 55 -4 17 -8 35 -9 42 -1 7 -13 33 -25 59 -64 128 -234
194 -375 146z m874 -2251 c212 -145 353 -242 637 -441 17 -11 45 -31 63 -43
18 -12 78 -53 133 -92 55 -38 108 -74 117 -80 9 -5 21 -14 26 -18 6 -5 63 -44
126 -87 63 -44 123 -85 132 -92 16 -11 458 -316 763 -527 261 -179 555 -383
620 -429 39 -27 142 -98 230 -159 88 -60 309 -213 490 -338 182 -126 383 -265
447 -309 209 -144 259 -179 478 -330 279 -193 354 -245 448 -309 42 -30 223
-155 402 -279 179 -123 368 -253 420 -289 52 -35 97 -66 100 -69 3 -4 55 -40
115 -81 61 -42 146 -100 190 -131 44 -30 193 -133 330 -228 138 -94 251 -173
253 -175 3 -2 -124 -324 -153 -390 -8 -16 -54 -131 -104 -255 -136 -342 -271
-682 -286 -715 -23 -56 -37 -90 -147 -365 -60 -151 -116 -288 -123 -305 -7
-16 -57 -140 -110 -275 -54 -135 -105 -263 -115 -285 -9 -22 -50 -122 -90
-222 -68 -172 -74 -183 -99 -184 -14 -1 -37 -2 -51 -4 -14 -1 -65 -5 -115 -9
-49 -4 -110 -9 -135 -11 -71 -6 -169 -14 -245 -20 -38 -3 -90 -8 -115 -10 -25
-2 -81 -7 -125 -10 -44 -4 -96 -8 -115 -10 -19 -2 -78 -6 -130 -10 -52 -4
-108 -9 -125 -10 -16 -2 -70 -6 -120 -10 -49 -3 -106 -8 -125 -10 -19 -2 -75
-6 -125 -10 -49 -3 -101 -8 -115 -10 -14 -2 -68 -7 -120 -10 -52 -4 -111 -8
-130 -10 -19 -2 -73 -6 -120 -10 -47 -3 -101 -8 -120 -10 -19 -3 -73 -7 -120
-10 -47 -3 -109 -8 -137 -10 -29 -3 -77 -7 -105 -10 -29 -2 -89 -7 -133 -10
-44 -3 -100 -7 -125 -10 -51 -5 -129 -12 -240 -20 -41 -3 -91 -8 -110 -10 -19
-2 -75 -7 -125 -10 -49 -4 -106 -8 -125 -10 -19 -2 -80 -6 -135 -10 -55 -4
-107 -8 -115 -10 -8 -2 -58 -6 -111 -10 -53 -3 -111 -8 -127 -10 -34 -4 -35
-3 -52 85 -17 83 -17 85 -71 370 -44 234 -87 458 -119 615 -5 28 -12 64 -15
82 -3 17 -16 87 -29 155 -14 68 -28 139 -31 158 -3 19 -12 67 -20 105 -8 39
-28 144 -45 235 -17 91 -47 244 -65 340 -19 96 -37 191 -40 210 -3 19 -8 42
-10 50 -2 8 -7 29 -10 45 -2 17 -7 41 -10 55 -3 14 -9 50 -15 80 -6 30 -12 66
-15 80 -3 14 -21 108 -41 210 -19 102 -46 244 -60 315 -14 72 -29 153 -35 180
-14 74 -15 80 -43 221 -14 71 -28 147 -31 169 -4 22 -10 56 -15 75 -5 19 -11
51 -14 70 -3 19 -8 46 -11 60 -2 14 -14 72 -25 130 -11 58 -23 116 -25 130 -3
14 -8 41 -11 60 -3 19 -7 43 -10 52 -3 10 -7 30 -10 45 -2 16 -9 51 -15 79 -5
28 -12 64 -14 80 -3 16 -10 49 -15 74 -5 25 -12 56 -14 70 -2 14 -27 144 -55
290 -27 146 -53 281 -56 300 -3 19 -10 53 -15 75 -5 22 -23 114 -40 205 -17
91 -35 184 -40 207 -6 22 -12 58 -16 80 -3 21 -12 70 -19 108 -8 39 -16 81
-19 95 -3 14 -16 86 -31 160 -14 74 -28 149 -31 165 -2 17 -7 37 -9 45 -2 8
-7 29 -10 46 -2 17 -19 102 -35 190 -17 87 -40 204 -50 259 -10 55 -28 147
-39 205 -11 58 -22 116 -25 130 -14 76 -56 288 -59 305 -3 11 -8 40 -13 65 -4
25 -8 47 -9 50 -5 25 -15 82 -20 110 -3 19 -10 50 -15 68 -4 17 -6 32 -4 32 3
0 44 -27 92 -59z m-594 -636 c10 -55 21 -113 26 -130 5 -16 12 -50 15 -75 3
-25 8 -53 11 -63 4 -11 7 -29 9 -40 2 -12 10 -58 19 -102 8 -44 17 -91 20
-105 60 -317 61 -320 76 -396 6 -28 13 -64 15 -80 3 -16 10 -49 15 -74 5 -25
12 -56 14 -70 11 -65 38 -210 47 -250 10 -48 54 -275 63 -326 9 -52 65 -344
81 -419 8 -38 17 -86 20 -105 3 -19 23 -125 44 -235 22 -110 53 -272 70 -360
17 -88 33 -172 36 -187 3 -16 7 -40 10 -55 3 -16 19 -95 35 -178 16 -82 32
-166 35 -185 3 -19 12 -66 20 -105 8 -38 17 -83 20 -100 6 -35 13 -70 20 -105
3 -14 12 -63 20 -110 9 -47 20 -105 25 -130 5 -25 12 -56 14 -70 4 -20 45
-237 110 -575 2 -11 25 -126 49 -255 25 -129 48 -246 50 -260 7 -37 39 -202
42 -220 14 -70 56 -290 60 -310 3 -14 7 -36 10 -50 7 -31 12 -59 25 -130 6
-30 12 -66 15 -80 5 -24 44 -228 50 -260 12 -65 36 -189 39 -205 2 -11 23
-117 46 -235 23 -118 44 -224 46 -235 2 -11 7 -36 10 -55 3 -19 14 -78 25
-130 10 -52 22 -114 25 -137 l6 -43 -34 -1 c-18 -1 -42 -3 -53 -4 -11 -1 -65
-5 -120 -9 -55 -4 -118 -9 -140 -11 -49 -5 -158 -14 -375 -30 -47 -3 -101 -8
-120 -10 -19 -2 -78 -7 -130 -11 -52 -3 -97 -8 -99 -10 -2 -2 -20 5 -40 15
-43 22 -100 40 -376 121 -115 33 -246 72 -290 85 -44 14 -204 61 -355 105
-151 44 -304 89 -340 100 -261 79 -853 254 -915 270 -16 5 -122 36 -235 70
-113 34 -225 67 -250 74 -25 7 -72 21 -106 31 l-61 17 248 622 c137 341 253
630 258 641 5 11 35 85 66 165 32 80 68 170 80 200 13 30 78 190 143 355 257
643 693 1731 702 1750 5 11 99 245 209 520 383 960 431 1080 441 1100 5 11
109 270 231 575 122 305 226 566 232 580 6 14 9 30 8 35 -2 7 1 7 7 0 5 -5 17
-55 26 -110z m8191 -7332 c-19 -28 -732 -1211 -1168 -1938 -132 -220 -243
-404 -247 -408 -4 -4 -45 13 -93 38 -88 47 -222 100 -279 111 -125 23 -266 25
-358 5 -73 -15 -85 -19 -136 -36 -140 -47 -280 -135 -539 -335 -335 -259 -428
-291 -595 -206 -61 30 -264 173 -312 219 -25 23 -203 154 -261 190 -292 187
-582 230 -862 130 -144 -52 -270 -132 -550 -347 -401 -308 -462 -308 -849 7
-66 53 -256 197 -260 197 -3 0 -25 13 -48 29 -24 16 -80 47 -123 69 -199 98
-376 123 -580 82 -195 -40 -335 -112 -579 -299 -132 -101 -123 -94 -166 -129
-19 -16 -75 -56 -125 -89 -241 -161 -319 -140 -740 191 -232 182 -436 294
-590 322 -92 17 -129 20 -206 18 -145 -3 -276 -39 -427 -115 l-56 -28 -33 77
c-19 42 -40 91 -47 107 -8 17 -61 138 -119 270 -114 261 -309 706 -337 770
-10 22 -31 72 -48 110 -17 39 -37 83 -46 100 -8 16 -14 30 -13 31 1 1 36 5 77
8 85 7 162 14 235 21 28 3 86 7 130 10 44 4 100 8 125 10 25 3 74 7 110 10 79
6 189 15 250 20 25 3 83 7 130 10 46 3 96 7 110 10 14 2 68 7 120 10 52 3 111
8 130 10 19 2 76 6 125 10 50 4 108 8 130 10 22 2 72 6 110 9 39 4 90 8 115
11 25 2 83 7 130 10 47 4 101 8 120 10 19 2 73 6 120 9 47 4 101 9 120 11 19
2 76 7 125 10 50 3 110 8 135 10 25 2 79 7 120 10 41 4 91 8 110 10 19 2 76 6
125 10 50 3 108 8 130 10 22 2 72 7 110 10 39 3 95 8 125 10 30 3 89 7 130 11
41 3 91 7 110 9 19 2 76 6 125 10 86 5 119 8 253 20 31 3 86 8 122 10 36 3 88
7 115 10 28 2 86 7 130 10 44 4 99 8 122 10 24 2 78 7 120 10 43 3 101 7 128
10 115 10 180 16 370 30 39 3 90 8 115 10 69 6 178 15 248 20 34 2 83 7 110 9
26 3 83 8 127 11 44 3 98 7 120 10 22 3 78 7 125 11 47 3 101 7 120 9 19 2 80
6 135 10 55 4 107 8 115 10 8 2 58 6 110 10 52 3 111 8 130 10 19 2 73 6 120
10 123 9 178 14 240 20 70 6 233 20 380 30 30 3 84 7 120 10 138 13 249 22
370 30 70 5 201 16 240 20 19 2 76 6 125 10 50 4 106 8 125 10 19 2 69 6 110
10 41 3 101 8 133 10 31 3 85 7 120 10 34 3 87 7 117 10 138 12 170 14 245 20
44 3 98 8 120 10 22 2 76 7 120 10 44 3 103 8 130 10 53 5 133 11 250 20 39 3
90 8 115 10 25 2 83 7 130 10 47 4 96 8 110 10 14 2 68 7 120 10 52 4 113 9
135 11 22 1 78 6 125 9 47 4 99 8 115 10 17 2 75 6 130 10 55 4 101 8 102 9 2
2 28 4 59 5 l57 2 -18 -28z"/>
<path d="M1155 1236 c-90 -25 -168 -90 -207 -175 -17 -35 -22 -65 -22 -126 0
-128 39 -191 184 -297 431 -315 892 -547 1200 -604 153 -28 307 -26 435 6 170
41 324 128 620 349 160 119 176 130 247 169 189 102 273 78 606 -173 396 -297
605 -387 884 -379 233 6 407 84 758 340 229 166 304 214 388 244 138 50 257 6
502 -184 146 -113 276 -206 362 -257 317 -189 656 -195 985 -19 100 54 178
107 383 259 398 296 457 295 887 -25 303 -226 450 -304 648 -344 73 -15 210
-19 279 -8 28 4 65 10 81 12 50 8 170 53 253 93 92 45 228 134 417 277 391
293 454 292 860 -9 138 -102 140 -104 225 -163 81 -57 218 -129 310 -162 44
-16 80 -27 80 -25 0 3 12 0 26 -6 31 -11 133 -22 219 -22 345 -2 829 215 1352
605 162 121 202 178 210 298 4 61 1 86 -16 131 -36 94 -130 177 -221 194 -125
22 -184 3 -334 -109 -218 -163 -409 -281 -609 -376 -166 -79 -272 -112 -373
-115 -127 -5 -197 29 -457 223 -336 250 -491 332 -709 373 -63 11 -231 14
-278 4 -14 -3 -38 -8 -55 -10 -88 -16 -262 -89 -368 -156 -29 -18 -133 -92
-232 -164 -99 -72 -202 -145 -229 -163 -98 -66 -188 -102 -266 -106 -74 -4
-210 60 -340 161 -98 76 -302 223 -310 223 -5 0 -10 3 -10 8 0 4 -15 15 -33
26 -17 10 -48 28 -67 39 -255 149 -522 189 -772 118 -151 -43 -282 -117 -525
-294 -221 -161 -275 -198 -348 -232 -78 -38 -87 -40 -171 -40 -63 0 -80 5
-148 39 -41 21 -169 109 -283 195 -217 163 -317 229 -424 278 -280 129 -561
122 -849 -22 -104 -52 -213 -125 -434 -288 -93 -69 -203 -142 -245 -163 -69
-36 -82 -39 -156 -39 -66 1 -90 5 -139 29 -81 37 -172 97 -334 219 -184 138
-245 179 -355 235 -345 178 -664 155 -1022 -72 -55 -35 -314 -223 -325 -237
-3 -3 -30 -23 -60 -45 -228 -165 -323 -176 -600 -66 -113 45 -299 137 -352
173 -14 11 -29 19 -32 19 -13 0 -222 136 -333 217 -65 48 -137 95 -161 105
-51 23 -142 29 -197 14z"/>
</g>
</svg>
