<?xml version="1.0" encoding="UTF-8" standalone="no"?>
<!DOCTYPE svg PUBLIC "-//W3C//DTD SVG 1.1//EN"
 "http://www.w3.org/Graphics/SVG/1.1/DTD/svg11.dtd">
<!-- Generated by graphviz version 2.40.1 (20161225.0304)
 -->
<!-- Title: %3 Pages: 1 -->
<svg width="359pt" height="78pt"
 viewBox="0.00 0.00 359.37 78.00" xmlns="http://www.w3.org/2000/svg" xmlns:xlink="http://www.w3.org/1999/xlink">
<g id="graph0" class="graph" transform="scale(1 1) rotate(0) translate(4 74)">
<title>%3</title>
<!-- Budd Cooter Doc -->
<g id="node1" class="node">
<title>Budd Cooter Doc</title>
<ellipse fill="none" stroke="#000000" stroke-width="2" cx="169.4947" cy="-52" rx="72.4894" ry="18"/>
<text text-anchor="middle" x="169.4947" y="-47.8" font-family="Times,serif" font-size="14.00" fill="#000000">Budd Cooter Doc</text>
</g>
<!-- Rickie -->
<g id="node3" class="node">
<title>Rickie</title>
<ellipse fill="none" stroke="#000000" cx="318.1808" cy="-18" rx="33.3839" ry="18"/>
<text text-anchor="middle" x="318.1808" y="-13.8" font-family="Times,serif" font-size="14.00" fill="#000000">Rickie</text>
</g>
<!-- Budd Cooter Doc&#45;&gt;Rickie -->
<g id="edge3" class="edge">
<title>Budd Cooter Doc&#45;&gt;Rickie</title>
<path fill="none" stroke="#000000" d="M223.1738,-39.7252C241.084,-35.6297 260.7323,-31.1367 277.4895,-27.3049"/>
<polygon fill="#000000" stroke="#000000" points="278.54,-30.6551 287.5082,-25.0139 276.9796,-23.8312 278.54,-30.6551"/>
<text text-anchor="middle" x="263.4894" y="-32.8" font-family="Times,serif" font-size="14.00" fill="#000000">3</text>
</g>
<!-- Ace -->
<g id="node2" class="node">
<title>Ace</title>
<ellipse fill="none" stroke="#000000" cx="27" cy="-22" rx="27" ry="18"/>
<text text-anchor="middle" x="27" y="-17.8" font-family="Times,serif" font-size="14.00" fill="#000000">Ace</text>
</g>
<!-- Ace&#45;&gt;Budd Cooter Doc -->
<g id="edge1" class="edge">
<title>Ace&#45;&gt;Budd Cooter Doc</title>
<path fill="none" stroke="#000000" d="M52.8047,-27.4328C67.2184,-30.4673 85.8907,-34.3985 104.056,-38.2229"/>
<polygon fill="#000000" stroke="#000000" points="103.5589,-41.6949 114.0655,-40.3303 105.0011,-34.8451 103.5589,-41.6949"/>
<text text-anchor="middle" x="75.5" y="-34.8" font-family="Times,serif" font-size="14.00" fill="#000000">3</text>
</g>
<!-- Ace&#45;&gt;Rickie -->
<g id="edge2" class="edge">
<title>Ace&#45;&gt;Rickie</title>
<path fill="none" stroke="#000000" d="M53.1458,-16.9001C66.2534,-14.5968 82.4052,-12.1397 97,-11 161.2441,-5.983 177.6173,-8.0492 241.9894,-11 252.8496,-11.4978 264.5533,-12.3928 275.451,-13.3801"/>
<polygon fill="#000000" stroke="#000000" points="275.3121,-16.8826 285.5986,-14.3451 275.9748,-9.9141 275.3121,-16.8826"/>
<text text-anchor="middle" x="169.4947" y="-13.8" font-family="Times,serif" font-size="14.00" fill="#000000">3</text>
</g>
</g>
</svg>
