<?xml version="1.0" encoding="UTF-8" standalone="no"?>
<!DOCTYPE svg PUBLIC "-//W3C//DTD SVG 1.1//EN"
 "http://www.w3.org/Graphics/SVG/1.1/DTD/svg11.dtd">
<!-- Generated by graphviz version 2.40.1 (20161225.0304)
 -->
<!-- Title: %3 Pages: 1 -->
<svg width="481pt" height="262pt"
 viewBox="0.00 0.00 481.28 262.00" xmlns="http://www.w3.org/2000/svg" xmlns:xlink="http://www.w3.org/1999/xlink">
<g id="graph0" class="graph" transform="scale(1 1) rotate(0) translate(4 258)">
<title>%3</title>
<!-- Budd -->
<g id="node1" class="node">
<title>Budd</title>
<ellipse fill="none" stroke="#000000" stroke-width="2" cx="126.2705" cy="-151" rx="29.0429" ry="18"/>
<text text-anchor="middle" x="126.2705" y="-146.8" font-family="Times,serif" font-size="14.00" fill="#000000">Budd</text>
</g>
<!-- Cooter -->
<g id="node2" class="node">
<title>Cooter</title>
<ellipse fill="none" stroke="#000000" stroke-width="2" cx="232.717" cy="-236" rx="34.3527" ry="18"/>
<text text-anchor="middle" x="232.717" y="-231.8" font-family="Times,serif" font-size="14.00" fill="#000000">Cooter</text>
</g>
<!-- Budd&#45;&gt;Cooter -->
<g id="edge5" class="edge">
<title>Budd&#45;&gt;Cooter</title>
<path fill="none" stroke="#000000" d="M135.42,-168.1458C143.7032,-182.2063 157.1078,-201.726 173.5411,-214 179.1462,-218.1864 185.6349,-221.6529 192.2182,-224.4982"/>
<polygon fill="#000000" stroke="#000000" points="191.2504,-227.8769 201.8392,-228.2338 193.7841,-221.3515 191.2504,-227.8769"/>
<text text-anchor="middle" x="177.0411" y="-219.8" font-family="Times,serif" font-size="14.00" fill="#000000">2</text>
</g>
<!-- Doc -->
<g id="node3" class="node">
<title>Doc</title>
<ellipse fill="none" stroke="#000000" stroke-width="2" cx="336.8929" cy="-157" rx="27" ry="18"/>
<text text-anchor="middle" x="336.8929" y="-152.8" font-family="Times,serif" font-size="14.00" fill="#000000">Doc</text>
</g>
<!-- Budd&#45;&gt;Doc -->
<g id="edge6" class="edge">
<title>Budd&#45;&gt;Doc</title>
<path fill="none" stroke="#000000" d="M155.5567,-151.8343C193.1982,-152.9066 258.5867,-154.7693 299.7043,-155.9406"/>
<polygon fill="#000000" stroke="#000000" points="299.7604,-159.4435 309.856,-156.2298 299.9598,-152.4464 299.7604,-159.4435"/>
<text text-anchor="middle" x="232.717" y="-156.8" font-family="Times,serif" font-size="14.00" fill="#000000">1</text>
</g>
<!-- Rickie -->
<g id="node5" class="node">
<title>Rickie</title>
<ellipse fill="none" stroke="#000000" cx="440.0843" cy="-118" rx="33.3839" ry="18"/>
<text text-anchor="middle" x="440.0843" y="-113.8" font-family="Times,serif" font-size="14.00" fill="#000000">Rickie</text>
</g>
<!-- Budd&#45;&gt;Rickie -->
<g id="edge7" class="edge">
<title>Budd&#45;&gt;Rickie</title>
<path fill="none" stroke="#000000" d="M150.5422,-140.8709C157.8498,-138.0634 165.9468,-135.1888 173.5411,-133 184.429,-129.8619 187.3287,-129.636 198.5411,-128 267.2189,-117.9792 347.9581,-116.7318 396.5194,-117.1046"/>
<polygon fill="#000000" stroke="#000000" points="396.6359,-120.606 406.6718,-117.2101 396.7087,-113.6063 396.6359,-120.606"/>
<text text-anchor="middle" x="288.3929" y="-121.8" font-family="Times,serif" font-size="14.00" fill="#000000">3</text>
</g>
<!-- Cooter&#45;&gt;Budd -->
<g id="edge8" class="edge">
<title>Cooter&#45;&gt;Budd</title>
<path fill="none" stroke="#000000" d="M213.8532,-220.9368C196.7431,-207.274 171.3587,-187.004 152.3171,-171.7988"/>
<polygon fill="#000000" stroke="#000000" points="154.326,-168.924 144.3277,-165.4191 149.9581,-174.3941 154.326,-168.924"/>
<text text-anchor="middle" x="177.0411" y="-195.8" font-family="Times,serif" font-size="14.00" fill="#000000">1</text>
</g>
<!-- Cooter&#45;&gt;Doc -->
<g id="edge9" class="edge">
<title>Cooter&#45;&gt;Doc</title>
<path fill="none" stroke="#000000" d="M263.5046,-228.1116C273.155,-224.7375 283.4745,-220.128 291.8929,-214 303.4752,-205.569 313.6409,-193.3931 321.3659,-182.4576"/>
<polygon fill="#000000" stroke="#000000" points="324.3443,-184.3005 327.0183,-174.0486 318.5348,-180.3954 324.3443,-184.3005"/>
<text text-anchor="middle" x="288.3929" y="-219.8" font-family="Times,serif" font-size="14.00" fill="#000000">2</text>
</g>
<!-- Cooter&#45;&gt;Rickie -->
<g id="edge10" class="edge">
<title>Cooter&#45;&gt;Rickie</title>
<path fill="none" stroke="#000000" d="M266.4712,-238.8776C274.9372,-238.6685 283.8861,-237.6232 291.8929,-235 345.1385,-217.5558 393.3465,-171.246 419.5064,-142.3942"/>
<polygon fill="#000000" stroke="#000000" points="422.2641,-144.5598 426.286,-134.758 417.0295,-139.9124 422.2641,-144.5598"/>
<text text-anchor="middle" x="336.8929" y="-229.8" font-family="Times,serif" font-size="14.00" fill="#000000">3</text>
</g>
<!-- Doc&#45;&gt;Budd -->
<g id="edge11" class="edge">
<title>Doc&#45;&gt;Budd</title>
<path fill="none" stroke="#000000" d="M313.6642,-147.7403C300.2366,-142.8873 282.8841,-137.4537 266.8929,-135 236.8657,-130.3925 228.7396,-131.6972 198.5411,-135 186.9022,-136.273 174.3939,-138.6664 163.1092,-141.2216"/>
<polygon fill="#000000" stroke="#000000" points="162.0707,-137.8708 153.1497,-143.5861 163.6877,-144.6815 162.0707,-137.8708"/>
<text text-anchor="middle" x="232.717" y="-137.8" font-family="Times,serif" font-size="14.00" fill="#000000">2</text>
</g>
<!-- Doc&#45;&gt;Cooter -->
<g id="edge12" class="edge">
<title>Doc&#45;&gt;Cooter</title>
<path fill="none" stroke="#000000" d="M318.5678,-170.6701C308.5915,-178.1308 296.0428,-187.5452 284.8929,-196 276.7928,-202.1422 268.0136,-208.852 260.0083,-214.9911"/>
<polygon fill="#000000" stroke="#000000" points="257.8073,-212.2684 252.007,-221.1344 262.0703,-217.8206 257.8073,-212.2684"/>
<text text-anchor="middle" x="288.3929" y="-198.8" font-family="Times,serif" font-size="14.00" fill="#000000">1</text>
</g>
<!-- Doc&#45;&gt;Rickie -->
<g id="edge13" class="edge">
<title>Doc&#45;&gt;Rickie</title>
<path fill="none" stroke="#000000" d="M360.5671,-148.0526C373.1371,-143.3019 388.8712,-137.3554 403.0184,-132.0086"/>
<polygon fill="#000000" stroke="#000000" points="404.3839,-135.2342 412.5008,-128.4249 401.9092,-128.6863 404.3839,-135.2342"/>
<text text-anchor="middle" x="385.3929" y="-141.8" font-family="Times,serif" font-size="14.00" fill="#000000">3</text>
</g>
<!-- Ace -->
<g id="node4" class="node">
<title>Ace</title>
<ellipse fill="none" stroke="#000000" cx="27" cy="-104" rx="27" ry="18"/>
<text text-anchor="middle" x="27" y="-99.8" font-family="Times,serif" font-size="14.00" fill="#000000">Ace</text>
</g>
<!-- Ace&#45;&gt;Budd -->
<g id="edge1" class="edge">
<title>Ace&#45;&gt;Budd</title>
<path fill="none" stroke="#000000" d="M49.0314,-114.4308C62.1513,-120.6425 79.0442,-128.6405 93.6844,-135.572"/>
<polygon fill="#000000" stroke="#000000" points="92.3817,-138.8276 102.9176,-139.9435 95.3771,-132.5009 92.3817,-138.8276"/>
<text text-anchor="middle" x="75.5" y="-129.8" font-family="Times,serif" font-size="14.00" fill="#000000">3</text>
</g>
<!-- Ace&#45;&gt;Cooter -->
<g id="edge2" class="edge">
<title>Ace&#45;&gt;Cooter</title>
<path fill="none" stroke="#000000" d="M38.269,-120.5054C60.1037,-150.7435 111.525,-213.862 173.5411,-235 178.4009,-236.6564 183.618,-237.7043 188.8679,-238.3182"/>
<polygon fill="#000000" stroke="#000000" points="188.7021,-241.8149 198.9187,-239.0094 189.1824,-234.8314 188.7021,-241.8149"/>
<text text-anchor="middle" x="126.2705" y="-229.8" font-family="Times,serif" font-size="14.00" fill="#000000">3</text>
</g>
<!-- Ace&#45;&gt;Doc -->
<g id="edge3" class="edge">
<title>Ace&#45;&gt;Doc</title>
<path fill="none" stroke="#000000" d="M53.1032,-99.3239C102.127,-91.7595 210.3656,-80.8939 291.8929,-115 301.4497,-118.998 310.2212,-125.9904 317.4318,-133.1362"/>
<polygon fill="#000000" stroke="#000000" points="315.2225,-135.8982 324.6069,-140.8159 320.3374,-131.1193 315.2225,-135.8982"/>
<text text-anchor="middle" x="177.0411" y="-94.8" font-family="Times,serif" font-size="14.00" fill="#000000">3</text>
</g>
<!-- Ace&#45;&gt;Rickie -->
<g id="edge4" class="edge">
<title>Ace&#45;&gt;Rickie</title>
<path fill="none" stroke="#000000" d="M34.1458,-86.3578C47.4688,-56.6862 79.0951,0 126.2705,0 126.2705,0 126.2705,0 336.8929,0 384.6981,0 415.4839,-55.5583 430.0986,-90.4297"/>
<polygon fill="#000000" stroke="#000000" points="426.9934,-92.0913 433.9546,-100.0783 433.4936,-89.4935 426.9934,-92.0913"/>
<text text-anchor="middle" x="232.717" y="-2.8" font-family="Times,serif" font-size="14.00" fill="#000000">3</text>
</g>
</g>
</svg>
