<?xml version="1.0" encoding="UTF-8" standalone="no"?>
<!DOCTYPE svg PUBLIC "-//W3C//DTD SVG 1.1//EN"
 "http://www.w3.org/Graphics/SVG/1.1/DTD/svg11.dtd">
<!-- Generated by graphviz version 2.40.1 (20161225.0304)
 -->
<!-- Title: %3 Pages: 1 -->
<svg width="287pt" height="90pt"
 viewBox="0.00 0.00 286.92 90.18" xmlns="http://www.w3.org/2000/svg" xmlns:xlink="http://www.w3.org/1999/xlink">
<g id="graph0" class="graph" transform="scale(1 1) rotate(0) translate(4 86.1821)">
<title>%3</title>
<!-- Ace -->
<g id="node1" class="node">
<title>Ace</title>
<ellipse fill="none" stroke="#000000" cx="27" cy="-20.1821" rx="27" ry="18"/>
<text text-anchor="middle" x="27" y="-15.9821" font-family="Times,serif" font-size="14.00" fill="#000000">Ace</text>
</g>
<!-- Budd -->
<g id="node2" class="node">
<title>Budd</title>
<ellipse fill="none" stroke="#000000" stroke-width="2" cx="133.2705" cy="-64.1821" rx="29.0429" ry="18"/>
<text text-anchor="middle" x="133.2705" y="-59.9821" font-family="Times,serif" font-size="14.00" fill="#000000">Budd</text>
</g>
<!-- Ace&#45;&gt;Budd -->
<g id="edge1" class="edge">
<title>Ace&#45;&gt;Budd</title>
<path fill="none" stroke="#ff0000" stroke-width="2" d="M43.4877,-34.4872C51.5854,-40.8108 61.7828,-47.7926 72,-52.1821 78.9154,-55.1531 86.5871,-57.3952 94.096,-59.0853"/>
<polygon fill="#ff0000" stroke="#ff0000" stroke-width="2" points="93.6604,-62.5667 104.1482,-61.0644 95.0127,-55.6985 93.6604,-62.5667"/>
<text text-anchor="middle" x="79" y="-58.9821" font-family="Times,serif" font-size="14.00" fill="#ff0000">69</text>
</g>
<!-- Rickie -->
<g id="node3" class="node">
<title>Rickie</title>
<ellipse fill="none" stroke="#000000" cx="245.7325" cy="-20.1821" rx="33.3839" ry="18"/>
<text text-anchor="middle" x="245.7325" y="-15.9821" font-family="Times,serif" font-size="14.00" fill="#000000">Rickie</text>
</g>
<!-- Ace&#45;&gt;Rickie -->
<g id="edge5" class="edge">
<title>Ace&#45;&gt;Rickie</title>
<path fill="none" stroke="#000000" d="M54.2604,-20.1821C91.3681,-20.1821 158.1943,-20.1821 202.2619,-20.1821"/>
<polygon fill="#000000" stroke="#000000" points="202.3946,-23.6822 212.3946,-20.1821 202.3946,-16.6822 202.3946,-23.6822"/>
<text text-anchor="middle" x="133.2705" y="-22.9821" font-family="Times,serif" font-size="14.00" fill="#000000">60</text>
</g>
<!-- Budd&#45;&gt;Ace -->
<g id="edge2" class="edge">
<title>Budd&#45;&gt;Ace</title>
<path fill="none" stroke="#666666" d="M114.2949,-50.0944C105.964,-44.4617 95.851,-38.3383 86,-34.1821 78.8511,-31.166 70.9282,-28.7262 63.2695,-26.7808"/>
<polygon fill="#666666" stroke="#666666" points="63.9731,-23.3511 53.4409,-24.5013 62.3916,-30.1701 63.9731,-23.3511"/>
<text text-anchor="middle" x="79" y="-36.9821" font-family="Times,serif" font-size="14.00" fill="#666666">31</text>
</g>
<!-- Budd&#45;&gt;Rickie -->
<g id="edge3" class="edge">
<title>Budd&#45;&gt;Rickie</title>
<path fill="none" stroke="#000000" d="M162.2565,-60.7335C172.6733,-58.9185 184.3583,-56.2026 194.5411,-52.1821 202.3552,-49.0969 210.2946,-44.8065 217.5149,-40.3681"/>
<polygon fill="#000000" stroke="#000000" points="219.7138,-43.1143 226.2123,-34.7465 215.9139,-37.2354 219.7138,-43.1143"/>
<text text-anchor="middle" x="187.5411" y="-58.9821" font-family="Times,serif" font-size="14.00" fill="#000000">60</text>
</g>
<!-- Rickie&#45;&gt;Ace -->
<g id="edge6" class="edge">
<title>Rickie&#45;&gt;Ace</title>
<path fill="none" stroke="#666666" d="M215.9486,-12.1256C200.201,-8.2771 180.467,-4.0993 162.5411,-2.1821 136.6704,.5847 129.8469,.7987 104,-2.1821 90.0103,-3.7955 74.869,-7.006 61.745,-10.2746"/>
<polygon fill="#666666" stroke="#666666" points="60.5126,-6.9785 51.7129,-12.879 62.2716,-13.7539 60.5126,-6.9785"/>
<text text-anchor="middle" x="133.2705" y="-4.9821" font-family="Times,serif" font-size="14.00" fill="#666666">40</text>
</g>
<!-- Rickie&#45;&gt;Budd -->
<g id="edge4" class="edge">
<title>Rickie&#45;&gt;Budd</title>
<path fill="none" stroke="#ff0000" stroke-width="2" d="M213.5531,-24.7527C202.8092,-26.8883 190.9329,-29.9285 180.5411,-34.1821 173.8929,-36.9034 167.1435,-40.5539 160.9055,-44.3701"/>
<polygon fill="#ff0000" stroke="#ff0000" stroke-width="2" points="158.7042,-41.6252 152.2033,-49.9911 162.5023,-47.5053 158.7042,-41.6252"/>
<text text-anchor="middle" x="187.5411" y="-36.9821" font-family="Times,serif" font-size="14.00" fill="#ff0000">40</text>
</g>
</g>
</svg>
