<?xml version="1.0" encoding="UTF-8" standalone="no"?>
<!DOCTYPE svg PUBLIC "-//W3C//DTD SVG 1.1//EN"
 "http://www.w3.org/Graphics/SVG/1.1/DTD/svg11.dtd">
<!-- Generated by graphviz version 2.40.1 (20161225.0304)
 -->
<!-- Title: %3 Pages: 1 -->
<svg width="287pt" height="78pt"
 viewBox="0.00 0.00 286.92 78.00" xmlns="http://www.w3.org/2000/svg" xmlns:xlink="http://www.w3.org/1999/xlink">
<g id="graph0" class="graph" transform="scale(1 1) rotate(0) translate(4 74)">
<title>%3</title>
<!-- Ace -->
<g id="node1" class="node">
<title>Ace</title>
<ellipse fill="none" stroke="#000000" cx="27" cy="-18" rx="27" ry="18"/>
<text text-anchor="middle" x="27" y="-13.8" font-family="Times,serif" font-size="14.00" fill="#000000">Ace</text>
</g>
<!-- Budd -->
<g id="node2" class="node">
<title>Budd</title>
<ellipse fill="none" stroke="#000000" cx="133.2705" cy="-52" rx="29.0429" ry="18"/>
<text text-anchor="middle" x="133.2705" y="-47.8" font-family="Times,serif" font-size="14.00" fill="#000000">Budd</text>
</g>
<!-- Ace&#45;&gt;Budd -->
<g id="edge1" class="edge">
<title>Ace&#45;&gt;Budd</title>
<path fill="none" stroke="#000000" d="M51.3806,-25.8003C65.0534,-30.1747 82.3613,-35.7122 97.5393,-40.5682"/>
<polygon fill="#000000" stroke="#000000" points="96.5553,-43.9281 107.1462,-43.6418 98.6884,-37.261 96.5553,-43.9281"/>
<text text-anchor="middle" x="79" y="-38.8" font-family="Times,serif" font-size="14.00" fill="#000000">38</text>
</g>
<!-- Rickie -->
<g id="node3" class="node">
<title>Rickie</title>
<ellipse fill="none" stroke="#000000" cx="245.7325" cy="-18" rx="33.3839" ry="18"/>
<text text-anchor="middle" x="245.7325" y="-13.8" font-family="Times,serif" font-size="14.00" fill="#000000">Rickie</text>
</g>
<!-- Ace&#45;&gt;Rickie -->
<g id="edge3" class="edge">
<title>Ace&#45;&gt;Rickie</title>
<path fill="none" stroke="#000000" d="M53.6858,-14.9743C68.4872,-13.4471 87.2383,-11.7603 104,-11 129.9915,-9.821 136.5457,-9.9083 162.5411,-11 175.6817,-11.5519 189.959,-12.592 202.9162,-13.7049"/>
<polygon fill="#000000" stroke="#000000" points="202.7055,-17.2 212.9776,-14.6051 203.3294,-10.2278 202.7055,-17.2"/>
<text text-anchor="middle" x="133.2705" y="-13.8" font-family="Times,serif" font-size="14.00" fill="#000000">20</text>
</g>
<!-- Budd&#45;&gt;Rickie -->
<g id="edge2" class="edge">
<title>Budd&#45;&gt;Rickie</title>
<path fill="none" stroke="#000000" d="M159.6379,-44.0285C173.5911,-39.8101 191.0005,-34.5468 206.5058,-29.8592"/>
<polygon fill="#000000" stroke="#000000" points="207.8053,-33.1228 216.3646,-26.8786 205.7796,-26.4223 207.8053,-33.1228"/>
<text text-anchor="middle" x="187.5411" y="-39.8" font-family="Times,serif" font-size="14.00" fill="#000000">20</text>
</g>
</g>
</svg>
