<?xml version="1.0" encoding="UTF-8" standalone="no"?>
<!DOCTYPE svg PUBLIC "-//W3C//DTD SVG 1.1//EN"
 "http://www.w3.org/Graphics/SVG/1.1/DTD/svg11.dtd">
<!-- Generated by graphviz version 2.40.1 (20161225.0304)
 -->
<!-- Title: %3 Pages: 1 -->
<svg width="249pt" height="223pt"
 viewBox="0.00 0.00 249.16 222.70" xmlns="http://www.w3.org/2000/svg" xmlns:xlink="http://www.w3.org/1999/xlink">
<g id="graph0" class="graph" transform="scale(1 1) rotate(0) translate(4 218.7015)">
<title>%3</title>
<!-- Ace -->
<g id="node1" class="node">
<title>Ace</title>
<ellipse fill="none" stroke="#000000" cx="118.6213" cy="-18" rx="27" ry="18"/>
<text text-anchor="middle" x="118.6213" y="-13.8" font-family="Times,serif" font-size="14.00" fill="#000000">Ace</text>
</g>
<!-- Rickie -->
<g id="node2" class="node">
<title>Rickie</title>
<ellipse fill="none" stroke="#000000" stroke-width="2" cx="207.972" cy="-107.3507" rx="33.3839" ry="18"/>
<text text-anchor="middle" x="207.972" y="-103.1507" font-family="Times,serif" font-size="14.00" fill="#000000">Rickie</text>
</g>
<!-- Ace&#45;&gt;Rickie -->
<g id="edge3" class="edge">
<title>Ace&#45;&gt;Rickie</title>
<path fill="none" stroke="#000000" d="M133.7784,-33.1571C147.7272,-47.1059 168.625,-68.0037 184.6908,-84.0695"/>
<polygon fill="#000000" stroke="#000000" points="182.5918,-86.9203 192.1378,-91.5165 187.5416,-81.9705 182.5918,-86.9203"/>
<text text-anchor="middle" x="152.2346" y="-61.4133" font-family="Times,serif" font-size="14.00" fill="#000000">20</text>
</g>
<!-- Cooter -->
<g id="node3" class="node">
<title>Cooter</title>
<ellipse fill="none" stroke="#000000" stroke-width="2" cx="118.6213" cy="-196.7015" rx="34.3527" ry="18"/>
<text text-anchor="middle" x="118.6213" y="-192.5015" font-family="Times,serif" font-size="14.00" fill="#000000">Cooter</text>
</g>
<!-- Ace&#45;&gt;Cooter -->
<g id="edge2" class="edge">
<title>Ace&#45;&gt;Cooter</title>
<path fill="none" stroke="#000000" d="M118.6213,-36.1183C118.6213,-67.2918 118.6213,-131.2923 118.6213,-168.3924"/>
<polygon fill="#000000" stroke="#000000" points="115.1214,-168.5352 118.6213,-178.5352 122.1214,-168.5353 115.1214,-168.5352"/>
<text text-anchor="middle" x="108.1213" y="-91.0553" font-family="Times,serif" font-size="14.00" fill="#000000">100</text>
</g>
<!-- Budd -->
<g id="node4" class="node">
<title>Budd</title>
<ellipse fill="none" stroke="#000000" stroke-width="2" cx="29.2705" cy="-107.3507" rx="29.0429" ry="18"/>
<text text-anchor="middle" x="29.2705" y="-103.1507" font-family="Times,serif" font-size="14.00" fill="#000000">Budd</text>
</g>
<!-- Ace&#45;&gt;Budd -->
<g id="edge1" class="edge">
<title>Ace&#45;&gt;Budd</title>
<path fill="none" stroke="#000000" d="M103.4641,-33.1571C89.4298,-47.1915 68.3609,-68.2604 52.2567,-84.3646"/>
<polygon fill="#000000" stroke="#000000" points="49.3986,-82.2729 44.8023,-91.8189 54.3483,-87.2227 49.3986,-82.2729"/>
<text text-anchor="middle" x="70.8604" y="-61.5609" font-family="Times,serif" font-size="14.00" fill="#000000">38</text>
</g>
<!-- Rickie&#45;&gt;Cooter -->
<g id="edge5" class="edge">
<title>Rickie&#45;&gt;Cooter</title>
<path fill="none" stroke="#000000" stroke-width="2" d="M191.9979,-123.3249C178.1077,-137.2151 157.7982,-157.5245 142.0657,-173.257"/>
<polygon fill="#000000" stroke="#000000" stroke-width="2" points="139.3546,-171.0184 134.7584,-180.5644 144.3043,-175.9682 139.3546,-171.0184"/>
<text text-anchor="middle" x="156.5318" y="-151.0909" font-family="Times,serif" font-size="14.00" fill="#000000">100</text>
</g>
<!-- Cooter&#45;&gt;Budd -->
<g id="edge6" class="edge">
<title>Cooter&#45;&gt;Budd</title>
<path fill="none" stroke="#000000" stroke-width="2" d="M102.6472,-180.7273C88.5844,-166.6646 67.9419,-146.0221 52.1308,-130.211"/>
<polygon fill="#000000" stroke="#000000" stroke-width="2" points="54.3531,-127.4835 44.8071,-122.8873 49.4033,-132.4333 54.3531,-127.4835"/>
<text text-anchor="middle" x="70.389" y="-158.2692" font-family="Times,serif" font-size="14.00" fill="#000000">38</text>
</g>
<!-- Budd&#45;&gt;Rickie -->
<g id="edge4" class="edge">
<title>Budd&#45;&gt;Rickie</title>
<path fill="none" stroke="#ff0000" stroke-width="2" d="M58.7795,-107.3507C87.5831,-107.3507 131.7418,-107.3507 164.5519,-107.3507"/>
<polygon fill="#ff0000" stroke="#ff0000" stroke-width="2" points="164.7719,-110.8508 174.7719,-107.3507 164.7719,-103.8508 164.7719,-110.8508"/>
<text text-anchor="middle" x="104.6657" y="-110.1507" font-family="Times,serif" font-size="14.00" fill="#ff0000">20</text>
</g>
</g>
</svg>
